# xmcd
#
# Track frame offsets:
#	150
#	13805
#	31504
#	52144
#	68137
#	82232
#	92595
#	108484
#	123369
#	134134
#	149577
#	162211
#	177234
#	194521
#	209124
#	220160
#	236335
#	249290
#	267374
#	278899
#
# Disc length: 3930 seconds
#
# Revision: 0
# Processed by: cddbd v1.5.2PL0 Copyright (c) Steve Scherf et al.
# Submitted via: dBpowerAMP V4.0
#
DISCID=340f5814
DTITLE=Michèle Richard - 40 Chansons Country CD2
DYEAR=1900
DGENRE=
TTITLE0=Un jour à la fois
TTITLE1=Mon enfance
TTITLE2=J'entends son violon
TTITLE3=Si on pouvait s'aimer ce soir
TTITLE4=C'est pas mon genre
TTITLE5=L'hiver, le froid
TTITLE6=Les lignes américaines
TTITLE7=Sentimentale
TTITLE8=Comme une rose
TTITLE9=Quand l'amour
TTITLE10=Le bonheur d'être une femme
TTITLE11=J'entends siffler le train
TTITLE12=L'amour est si fragile
TTITLE13=Moi, je ne demande rien
TTITLE14=Rien ne peu le changer
TTITLE15=Je ne peu l'oublier
TTITLE16=Guide-moi, prends ma main
TTITLE17=Quand mon père m'emmènera chez lui
TTITLE18=Dans une humide chapelle
TTITLE19=Lorsque la paix reviendra
EXTD=
EXTT0=
EXTT1=
EXTT2=
EXTT3=
EXTT4=
EXTT5=
EXTT6=
EXTT7=
EXTT8=
EXTT9=
EXTT10=
EXTT11=
EXTT12=
EXTT13=
EXTT14=
EXTT15=
EXTT16=
EXTT17=
EXTT18=
EXTT19=
PLAYORDER=
